<?xml version="1.0" standalone="no"?>
<!DOCTYPE svg PUBLIC "-//W3C//DTD SVG 20010904//EN"
 "http://www.w3.org/TR/2001/REC-SVG-20010904/DTD/svg10.dtd">
<svg version="1.0" xmlns="http://www.w3.org/2000/svg"
 width="400.000000pt" height="400.000000pt" viewBox="0 0 400.000000 400.000000"
 preserveAspectRatio="xMidYMid meet">

<g transform="translate(0.000000,400.000000) scale(0.100000,-0.100000)"
fill="#000000" stroke="none">
<path d="M0 2000 l0 -2000 2000 0 2000 0 0 2000 0 2000 -2000 0 -2000 0 0
-2000z m1800 1266 c-8 -8 -107 -67 -220 -131 -113 -65 -207 -119 -209 -121 -2
-2 57 -108 132 -236 217 -375 528 -913 602 -1043 37 -66 69 -122 71 -123 3 -4
12 1 263 147 96 56 175 100 177 98 4 -3 -61 -116 -386 -677 -58 -102 -133
-231 -166 -287 -32 -57 -61 -103 -64 -103 -3 0 -40 60 -82 133 -42 72 -132
229 -200 347 -69 118 -227 393 -352 610 -126 217 -277 478 -336 580 -342 591
-460 798 -460 808 0 9 154 12 622 12 532 0 620 -2 608 -14z m1630 3 c0 -7 -52
-102 -116 -213 -64 -111 -160 -276 -213 -368 -53 -92 -99 -168 -102 -168 -4 0
-63 98 -132 218 -68 119 -166 288 -216 375 -50 87 -91 160 -91 162 0 3 196 5
435 5 321 0 435 -3 435 -11z m-880 -2262 c87 -44 95 -192 14 -256 -33 -26
-120 -29 -164 -6 -81 42 -89 179 -15 244 30 26 44 31 88 31 29 0 63 -6 77 -13z"/>
<path d="M2425 991 c-77 -32 -91 -154 -25 -213 24 -22 40 -28 78 -28 75 0 122
48 122 125 0 92 -89 151 -175 116z m106 -42 c14 -14 18 -26 13 -42 -10 -27 -9
-52 1 -94 11 -49 -18 -43 -38 7 -11 28 -21 40 -36 40 -16 0 -20 -8 -23 -37 -2
-27 -8 -39 -20 -41 -16 -3 -18 6 -18 92 l0 96 50 0 c37 0 55 -5 71 -21z"/>
<path d="M2450 915 c0 -23 4 -26 28 -23 19 2 27 9 27 23 0 14 -8 21 -27 23
-24 3 -28 0 -28 -23z"/>
</g>
</svg>
