<svg width="22" height="17" viewBox="0 0 22 17" fill="none" xmlns="http://www.w3.org/2000/svg">
<path d="M15.9454 11.043C14.6282 9.89688 12.9079 9.20312 11.0235 9.20312C9.13911 9.20312 7.4188 9.89687 6.09926 11.0453C6.06283 11.0782 6.04052 11.1238 6.03702 11.1728C6.03353 11.2217 6.04911 11.2701 6.08051 11.3078L6.92426 12.3133C6.99223 12.393 7.11176 12.4023 7.19145 12.3344C8.21333 11.4344 9.55395 10.8906 11.0235 10.8906C12.493 10.8906 13.8336 11.4344 14.8555 12.332C14.9352 12.4 15.0547 12.3906 15.1227 12.3109L15.9665 11.3055C16.0321 11.2281 16.0227 11.1109 15.9454 11.043ZM18.6969 7.75937C16.618 6.02734 13.9438 4.98438 11.0235 4.98438C8.10317 4.98438 5.42895 6.02734 3.3477 7.75937C3.30963 7.79149 3.2858 7.83735 3.28141 7.88697C3.27702 7.93658 3.29242 7.98592 3.32426 8.02422L4.16801 9.02969C4.23364 9.10937 4.35317 9.11875 4.43051 9.05312C6.2188 7.56719 8.51801 6.67188 11.0235 6.67188C13.529 6.67188 15.8282 7.56719 17.6141 9.05312C17.6938 9.11875 17.811 9.10937 17.8766 9.02969L18.7204 8.02422C18.786 7.94453 18.7766 7.825 18.6969 7.75937ZM21.4321 4.50156C18.5868 2.16719 14.9446 0.765625 10.9766 0.765625C7.03442 0.765625 3.41567 2.14844 0.57739 4.45469C0.55789 4.47035 0.541722 4.48976 0.529838 4.51177C0.517953 4.53378 0.510593 4.55795 0.508191 4.58285C0.505789 4.60775 0.508392 4.63287 0.515849 4.65675C0.523305 4.68063 0.535464 4.70277 0.551608 4.72187L1.39536 5.72734C1.46098 5.80469 1.57817 5.81641 1.65551 5.75312C4.20317 3.68828 7.44458 2.45312 10.9766 2.45312C14.5344 2.45312 17.7969 3.70703 20.3516 5.79766C20.4313 5.86328 20.5485 5.85156 20.6141 5.77188L21.4579 4.76641C21.5258 4.68672 21.5141 4.56719 21.4321 4.50156ZM9.50005 14.7344C9.50005 15.1322 9.65808 15.5137 9.93939 15.795C10.2207 16.0763 10.6022 16.2344 11 16.2344C11.3979 16.2344 11.7794 16.0763 12.0607 15.795C12.342 15.5137 12.5 15.1322 12.5 14.7344C12.5 14.3366 12.342 13.955 12.0607 13.6737C11.7794 13.3924 11.3979 13.2344 11 13.2344C10.6022 13.2344 10.2207 13.3924 9.93939 13.6737C9.65808 13.955 9.50005 14.3366 9.50005 14.7344Z" fill="white"/>
</svg>
