<svg width="24" height="19" viewBox="0 0 24 19" fill="none" xmlns="http://www.w3.org/2000/svg">
<path d="M16.0591 2.94157C14.7261 2.64779 13.3651 2.49992 12.0001 2.50057C7.88864 2.50057 4.08464 3.82357 0.994638 6.06907C0.910405 6.13202 0.84082 6.21248 0.790676 6.30491C0.740533 6.39734 0.711022 6.49955 0.704179 6.60448C0.697336 6.70941 0.713322 6.81458 0.751035 6.91274C0.788749 7.0109 0.847295 7.09972 0.922638 7.17307C1.05373 7.30219 1.22639 7.3806 1.40988 7.39433C1.59337 7.40807 1.77578 7.35624 1.92464 7.24807C4.85735 5.13156 8.38345 3.99503 12.0001 4.00057C12.9451 4.00057 13.8736 4.07557 14.7781 4.22257L16.0591 2.94157ZM12.0001 7.00057C9.14264 7.00057 6.48014 7.84057 4.25114 9.28957C4.16197 9.34975 4.08741 9.42915 4.03296 9.52193C3.9785 9.61471 3.94553 9.71851 3.93647 9.82571C3.9274 9.93291 3.94248 10.0408 3.98058 10.1414C4.01868 10.242 4.07884 10.3328 4.15664 10.4071C4.28444 10.5318 4.45085 10.6094 4.62856 10.6271C4.80627 10.6448 4.98472 10.6016 5.13464 10.5046C6.72565 9.48495 8.52455 8.83406 10.3996 8.59957L12.0001 7.00057ZM15.8941 9.10657L17.0716 7.92907C18.0166 8.28907 18.9121 8.74657 19.7491 9.28957C19.8379 9.35011 19.912 9.42965 19.9661 9.52242C20.0202 9.61518 20.053 9.71884 20.062 9.82586C20.0711 9.93288 20.0562 10.0406 20.0184 10.1411C19.9806 10.2416 19.9209 10.3325 19.8436 10.4071C19.7158 10.5318 19.5494 10.6094 19.3717 10.6271C19.194 10.6448 19.0156 10.6016 18.8656 10.5046C17.9403 9.91198 16.942 9.44205 15.8956 9.10657H15.8941ZM12.0001 13.0006L13.3996 11.6011C14.4518 11.7517 15.4719 12.0745 16.4191 12.5566C16.8466 12.7741 16.9081 13.3426 16.5691 13.6816L16.5466 13.7041C16.4269 13.8191 16.2743 13.894 16.11 13.9182C15.9457 13.9424 15.778 13.9147 15.6301 13.8391C14.5003 13.2853 13.2584 12.9985 12.0001 13.0006ZM19.3576 5.64307L20.4781 4.52257C21.3631 4.97257 22.2076 5.49007 23.0056 6.06757C23.09 6.13063 23.1597 6.21125 23.2099 6.30388C23.26 6.3965 23.2895 6.49892 23.2962 6.60404C23.3029 6.70917 23.2867 6.81449 23.2487 6.91274C23.2107 7.01099 23.1518 7.09981 23.0761 7.17307C22.945 7.30219 22.7724 7.3806 22.5889 7.39433C22.4054 7.40807 22.223 7.35624 22.0741 7.24807C21.2196 6.63116 20.3103 6.09391 19.3576 5.64307ZM13.5301 15.6706C13.8871 15.8806 13.8841 16.3666 13.5901 16.6606L12.5296 17.7196C12.389 17.8602 12.1983 17.9392 11.9994 17.9392C11.8005 17.9392 11.6098 17.8602 11.4691 17.7196L10.4086 16.6591C10.1161 16.3666 10.1131 15.8821 10.4686 15.6691C10.932 15.3939 11.4612 15.2493 12.0001 15.2506C12.5611 15.2506 13.0846 15.4036 13.5316 15.6706H13.5301ZM20.0626 0.813073C20.2118 0.663889 20.4142 0.580078 20.6251 0.580078C20.8361 0.580078 21.0385 0.663889 21.1876 0.813073C21.3368 0.962257 21.4206 1.16459 21.4206 1.37557C21.4206 1.58655 21.3368 1.78889 21.1876 1.93807L5.06264 18.0631C4.98877 18.1369 4.90107 18.1955 4.80456 18.2355C4.70805 18.2755 4.6046 18.2961 4.50014 18.2961C4.39567 18.2961 4.29223 18.2755 4.19572 18.2355C4.0992 18.1955 4.01151 18.1369 3.93764 18.0631C3.86377 17.9892 3.80517 17.9015 3.7652 17.805C3.72522 17.7085 3.70464 17.605 3.70464 17.5006C3.70464 17.3961 3.72522 17.2927 3.7652 17.1961C3.80517 17.0996 3.86377 17.0119 3.93764 16.9381L20.0626 0.813073Z" fill="white"/>
</svg>
